<svg width="111" height="40" viewBox="0 0 111 40" fill="none" xmlns="http://www.w3.org/2000/svg">
<path fill-rule="evenodd" clip-rule="evenodd" d="M22.8624 4.19372C21.8985 4.19372 21.1188 3.41482 21.1188 2.45614C21.1188 1.49746 21.8985 0.718563 22.8624 0.718563C23.8263 0.718563 24.6059 1.49746 24.6059 2.45614C24.6059 3.41482 23.8263 4.19372 22.8624 4.19372ZM20.4003 2.45614C20.4003 3.81359 21.5036 4.91228 22.8624 4.91228C22.9255 4.91228 22.988 4.90991 23.0499 4.90526L24.7238 10.1042C23.6261 10.5999 22.8624 11.7022 22.8624 12.9825C22.8624 13.4329 22.9569 13.8612 23.1272 14.2489L16.3169 18.1974C15.745 17.3782 14.794 16.8421 13.7174 16.8421C12.9343 16.8421 12.2175 17.1258 11.6648 17.5959L7.8666 13.8582C8.22536 13.4316 8.4415 12.8815 8.4415 12.2807C8.4415 10.9232 7.33821 9.82456 5.97939 9.82456C4.62058 9.82456 3.51729 10.9232 3.51729 12.2807C3.51729 13.6381 4.62058 14.7368 5.97939 14.7368C6.47698 14.7368 6.9403 14.5895 7.32772 14.3361L11.1734 18.1204C10.8424 18.5655 10.626 19.1005 10.5677 19.682L4.91224 19.7562C4.78953 18.5134 3.73857 17.5439 2.4621 17.5439C1.10328 17.5439 0 18.6425 0 20C0 21.3574 1.10328 22.4561 2.4621 22.4561C3.65813 22.4561 4.65618 21.6049 4.87816 20.4753L10.5771 20.4005C10.6529 20.9976 10.8958 21.5428 11.2576 21.9878L7.51077 25.7959C7.09028 25.4624 6.558 25.2632 5.97939 25.2632C4.62058 25.2632 3.51729 26.3618 3.51729 27.7193C3.51729 29.0767 4.62058 30.1754 5.97939 30.1754C7.33821 30.1754 8.4415 29.0767 8.4415 27.7193C8.4415 27.1991 8.27949 26.7169 8.00318 26.32L11.771 22.4906C12.3079 22.9087 12.9835 23.1579 13.7174 23.1579C14.7354 23.1579 15.6411 22.6786 16.2201 21.9339L23.1089 25.7938C22.9501 26.1701 22.8624 26.5836 22.8624 27.0175C22.8624 28.3022 23.6314 29.4077 24.7352 29.901L23.0847 35.0976C23.0115 35.0911 22.9373 35.0877 22.8624 35.0877C21.5036 35.0877 20.4003 36.1864 20.4003 37.5439C20.4003 38.9013 21.5036 40 22.8624 40C24.2212 40 25.3245 38.9013 25.3245 37.5439C25.3245 36.5123 24.6874 35.6302 23.7851 35.2661L25.4204 30.1173C25.617 30.1555 25.8201 30.1754 26.0279 30.1754C26.5023 30.1754 26.9523 30.0714 27.3562 29.8848L30.1845 34.5215C29.5832 34.9692 29.1935 35.6845 29.1935 36.4912C29.1935 37.8487 30.2968 38.9474 31.6556 38.9474C33.0144 38.9474 34.1177 37.8487 34.1177 36.4912C34.1177 35.1338 33.0144 34.0351 31.6556 34.0351C31.3617 34.0351 31.0798 34.0865 30.8184 34.1808L27.9701 29.5114C28.3726 29.1991 28.6975 28.7919 28.911 28.3235L34.1237 30.0022C34.1197 30.0594 34.1177 30.1172 34.1177 30.1754C34.1177 31.5329 35.221 32.6316 36.5798 32.6316C37.9386 32.6316 39.0419 31.5329 39.0419 30.1754C39.0419 28.818 37.9386 27.7193 36.5798 27.7193C35.5307 27.7193 34.6339 28.3742 34.2796 29.2975L29.1321 27.6397C29.1724 27.4386 29.1935 27.2305 29.1935 27.0175C29.1935 25.3947 27.9664 24.0577 26.3872 23.8798V16.1202C27.9664 15.9423 29.1935 14.6053 29.1935 12.9825C29.1935 12.8611 29.1866 12.7413 29.1733 12.6234L34.2932 11.4387C34.6564 12.3438 35.5438 12.9825 36.5798 12.9825C37.9386 12.9825 39.0419 11.8838 39.0419 10.5263C39.0419 9.16886 37.9386 8.07017 36.5798 8.07017C35.221 8.07017 34.1177 9.16886 34.1177 10.5263C34.1177 10.5982 34.1208 10.6694 34.1269 10.7397L29.0111 11.9234C28.8084 11.3553 28.4473 10.8622 27.9809 10.497L30.8544 5.83188C31.1056 5.9181 31.3752 5.96491 31.6556 5.96491C33.0144 5.96491 34.1177 4.86622 34.1177 3.50877C34.1177 2.15132 33.0144 1.05263 31.6556 1.05263C30.2968 1.05263 29.1935 2.15132 29.1935 3.50877C29.1935 4.32883 29.5962 5.05445 30.2146 5.50045L27.3686 10.1209C26.9615 9.93078 26.5071 9.82455 26.0279 9.82455C25.8158 9.82455 25.6086 9.84537 25.4081 9.88506L23.7536 4.74638C24.6725 4.39026 25.3245 3.49966 25.3245 2.45614C25.3245 1.09869 24.2212 0 22.8624 0C21.5036 0 20.4003 1.09869 20.4003 2.45614ZM16.6586 18.8299L23.4895 14.8695C23.9992 15.5507 24.7779 16.0199 25.6687 16.1202V23.8798C24.7617 23.982 23.9709 24.4665 23.4619 25.1679L16.5941 21.3198C16.7796 20.9182 16.883 20.4711 16.883 20C16.883 19.5866 16.8034 19.1917 16.6586 18.8299ZM31.6556 5.24634C30.6917 5.24634 29.9121 4.46744 29.9121 3.50877C29.9121 2.55009 30.6917 1.77119 31.6556 1.77119C32.6195 1.77119 33.3992 2.55009 33.3992 3.50877C33.3992 4.46744 32.6195 5.24634 31.6556 5.24634ZM34.8363 10.5263C34.8363 11.485 35.6159 12.2639 36.5798 12.2639C37.5437 12.2639 38.3233 11.485 38.3233 10.5263C38.3233 9.56763 37.5437 8.78873 36.5798 8.78873C35.6159 8.78873 34.8363 9.56763 34.8363 10.5263ZM36.5798 31.913C35.6159 31.913 34.8363 31.1341 34.8363 30.1754C34.8363 29.2168 35.6159 28.4379 36.5798 28.4379C37.5437 28.4379 38.3233 29.2168 38.3233 30.1754C38.3233 31.1341 37.5437 31.913 36.5798 31.913ZM29.9121 36.4912C29.9121 37.4499 30.6917 38.2288 31.6556 38.2288C32.6195 38.2288 33.3992 37.4499 33.3992 36.4912C33.3992 35.5325 32.6195 34.7536 31.6556 34.7536C30.6917 34.7536 29.9121 35.5325 29.9121 36.4912ZM22.8624 39.2814C21.8985 39.2814 21.1188 38.5025 21.1188 37.5439C21.1188 36.5852 21.8985 35.8063 22.8624 35.8063C23.8263 35.8063 24.6059 36.5852 24.6059 37.5439C24.6059 38.5025 23.8263 39.2814 22.8624 39.2814ZM4.23585 27.7193C4.23585 28.678 5.0155 29.4569 5.97939 29.4569C6.94329 29.4569 7.72293 28.678 7.72293 27.7193C7.72293 26.7606 6.94329 25.9817 5.97939 25.9817C5.0155 25.9817 4.23585 26.7606 4.23585 27.7193ZM2.4621 21.7376C1.49821 21.7376 0.718563 20.9587 0.718563 20C0.718563 19.0413 1.49821 18.2624 2.4621 18.2624C3.426 18.2624 4.20564 19.0413 4.20564 20C4.20564 20.9587 3.426 21.7376 2.4621 21.7376ZM4.23585 12.2807C4.23585 13.2394 5.0155 14.0183 5.97939 14.0183C6.94329 14.0183 7.72293 13.2394 7.72293 12.2807C7.72293 11.322 6.94329 10.5431 5.97939 10.5431C5.0155 10.5431 4.23585 11.322 4.23585 12.2807ZM58.192 32.0533C56.093 33.1994 53.5883 33.7725 50.678 33.7725L48.4373 33.7338C47.0431 33.684 46.0099 33.6583 45.3377 33.6566L45.2695 33.6566C43.1576 33.6566 41.5607 33.6952 40.479 33.7725V32.9998C41.4062 32.9483 42.0823 32.8453 42.5072 32.6907C42.9322 32.5362 43.2219 32.24 43.3765 31.8022C43.531 31.3644 43.6083 30.6561 43.6083 29.6774V10.5157C43.6083 9.53705 43.531 8.82879 43.3765 8.39096C43.2219 7.95313 42.9322 7.65694 42.5072 7.50241C42.0823 7.34788 41.4062 7.24486 40.479 7.19336V6.42071C41.3805 6.49797 42.6296 6.5366 44.2264 6.5366L47.5101 6.49797C49.2615 6.44646 50.4333 6.42071 51.0257 6.42071C55.5843 6.42071 58.9968 7.56036 61.2633 9.83967C63.5297 12.119 64.6629 15.4349 64.6629 19.7875C64.6629 22.5948 64.1092 25.0544 63.0017 27.1663C61.8943 29.2782 60.291 30.9072 58.192 32.0533ZM48.2635 32.8066C48.6627 32.9869 49.2744 33.0771 50.0985 33.0771C52.8285 33.0771 54.9791 32.5813 56.5501 31.5897C58.1212 30.5982 59.2222 29.1494 59.8532 27.2436C60.4842 25.3377 60.7997 22.9039 60.7997 19.9421C60.7997 16.9802 60.452 14.5657 59.7566 12.6985C59.0612 10.8312 57.9345 9.43403 56.3763 8.50686C54.8181 7.57968 52.7126 7.11609 50.0599 7.11609C49.2615 7.11609 48.6627 7.20623 48.2635 7.38652C47.8643 7.5668 47.5874 7.88874 47.4329 8.35233C47.2783 8.81592 47.2011 9.5113 47.2011 10.4385V29.7547C47.2011 30.6819 47.2783 31.3772 47.4329 31.8408C47.5874 32.3044 47.8643 32.6264 48.2635 32.8066ZM85.2575 33.7725H84.1276C82.2027 33.7725 81.8165 33.6566 81.5074 33.3861C80.8249 32.768 80.3163 31.6863 79.9815 30.141L79.1315 26.2778C78.8225 24.9385 78.5327 23.9083 78.2623 23.1872C77.9919 22.466 77.5863 21.8865 77.0454 21.4487C76.5045 21.0109 75.7448 20.792 74.7661 20.792H71.096V29.6774C71.096 30.6561 71.1733 31.3644 71.3278 31.8022C71.4823 32.24 71.7721 32.5362 72.197 32.6907C72.622 32.8453 73.298 32.9483 74.2252 32.9998V33.7725C73.0764 33.6975 71.5038 33.6589 69.5073 33.6567L69.3189 33.6566C67.104 33.6566 65.4557 33.6952 64.374 33.7725V32.9998C65.3011 32.9483 65.9772 32.8453 66.4022 32.6907C66.8271 32.5362 67.1169 32.24 67.2714 31.8022C67.4259 31.3644 67.5032 30.6561 67.5032 29.6774V10.5157C67.5032 9.53705 67.4259 8.82879 67.2714 8.39096C67.1169 7.95313 66.8271 7.65694 66.4022 7.50241C65.9772 7.34788 65.3011 7.24486 64.374 7.19336V6.42071C65.4557 6.49797 67.0267 6.5366 69.0871 6.5366L73.2594 6.49797C73.7488 6.47222 74.3025 6.45934 74.9206 6.45934C77.9082 6.45934 80.2068 7.0839 81.8165 8.33301C83.4262 9.58213 84.231 11.1982 84.231 13.1814C84.231 14.1858 83.9928 15.1967 83.5163 16.214C83.0399 17.2313 82.2414 18.1456 81.1211 18.9569C80.0008 19.7682 78.5392 20.3155 76.7363 20.5988L77.1999 20.6761C78.8997 20.9594 80.136 21.4745 80.9086 22.2214C81.6813 22.9683 82.2479 24.153 82.6085 25.7755L83.5743 29.716C83.8318 30.9008 84.1022 31.7249 84.3855 32.1885C84.6689 32.6521 85.0552 32.8839 85.5445 32.8839C85.578 32.8839 85.6111 32.8832 85.6438 32.8819C86.753 32.4571 87.6435 31.3761 88.3152 29.6388L97.3939 6.22754H98.012L107.438 30.5273C108.056 32.1241 108.945 32.9483 110.104 32.9998V33.7725C109.109 33.6979 107.79 33.6593 106.148 33.6567L105.97 33.6566C103.755 33.6566 102.107 33.6952 101.025 33.7725V32.9998C102.004 32.9483 102.706 32.826 103.131 32.6328C103.556 32.4396 103.768 32.0855 103.768 31.5704C103.768 31.1326 103.614 30.5273 103.305 29.7547L100.948 23.419H91.599L90.0151 27.514C89.5 28.9048 89.2424 29.9607 89.2424 30.6819C89.2424 31.4803 89.5193 32.0597 90.073 32.4203C90.6267 32.7809 91.4702 32.9741 92.6034 32.9998V33.7725C91.1354 33.6952 89.6545 33.6566 88.1607 33.6566C87.0168 33.6566 86.0611 33.6942 85.2936 33.7695C85.2831 33.771 85.2735 33.7719 85.2649 33.7723C85.2643 33.7723 85.2638 33.7724 85.2633 33.7725V33.7724C85.2613 33.7724 85.2593 33.7725 85.2575 33.7725ZM71.096 20.0193H73.6844C76.2341 20.0193 77.9855 19.4527 78.9384 18.3195C79.8913 17.1863 80.3678 15.6152 80.3678 13.6063C80.3678 11.4944 79.8656 9.89762 78.8611 8.81592C77.8567 7.73421 76.2212 7.19336 73.9548 7.19336C73.1564 7.19336 72.5576 7.2835 72.1584 7.46378C71.7592 7.64407 71.4823 7.966 71.3278 8.42959C71.1733 8.89318 71.096 9.58856 71.096 10.5157V20.0193ZM91.9081 22.6463H100.639L96.3121 11.0952L91.9081 22.6463Z" fill="white"/>
</svg>
