<svg width="595" height="248" viewBox="0 0 595 248" fill="none" xmlns="http://www.w3.org/2000/svg">
<path fill-rule="evenodd" clip-rule="evenodd" d="M536.021 146.407C532.504 146.407 529.659 143.564 529.659 140.066C529.659 136.568 532.504 133.726 536.021 133.726C539.538 133.726 542.383 136.568 542.383 140.066C542.383 143.564 539.538 146.407 536.021 146.407ZM527.037 140.066C527.037 145.02 531.063 149.029 536.021 149.029C536.301 149.029 536.578 149.016 536.851 148.991L542.963 167.974C538.958 169.783 536.171 173.806 536.171 178.477C536.171 180.121 536.516 181.684 537.137 183.098L512.286 197.507C510.199 194.517 506.729 192.561 502.8 192.561C499.943 192.561 497.327 193.597 495.31 195.312L481.45 181.673C482.759 180.116 483.548 178.109 483.548 175.916C483.548 170.963 479.522 166.954 474.564 166.954C469.605 166.954 465.579 170.963 465.579 175.916C465.579 180.87 469.605 184.879 474.564 184.879C476.379 184.879 478.07 184.341 479.484 183.417L493.517 197.226C492.432 198.686 491.684 200.411 491.389 202.285L465.447 201.491C465.123 196.833 461.231 193.159 456.485 193.159C451.527 193.159 447.501 197.168 447.501 202.122C447.501 205.433 449.299 208.321 451.972 209.873L440.481 229.974C439.063 229.354 437.495 229.01 435.847 229.01C435.073 229.01 434.317 229.085 433.585 229.23L427.531 210.427C430.814 209.093 433.13 205.879 433.13 202.122C433.13 197.169 429.104 193.159 424.146 193.159C419.188 193.159 415.162 197.169 415.162 202.122C415.162 207.075 419.188 211.085 424.146 211.085C424.426 211.085 424.703 211.072 424.976 211.047L431.088 230.03C427.082 231.839 424.296 235.861 424.296 240.533C424.296 242.176 424.641 243.74 425.262 245.154L400.411 259.562C398.324 256.573 394.854 254.617 390.925 254.617C388.067 254.617 385.452 255.652 383.435 257.367L369.575 243.729C370.884 242.172 371.673 240.165 371.673 237.972C371.673 233.019 367.647 229.01 362.689 229.01C357.73 229.01 353.704 233.019 353.704 237.972C353.704 242.926 357.73 246.935 362.689 246.935C364.504 246.935 366.195 246.397 367.609 245.472L381.642 259.282C380.556 260.741 379.809 262.466 379.514 264.341L353.572 263.547C353.248 258.888 349.356 255.215 344.61 255.215C339.651 255.215 335.625 259.224 335.625 264.178C335.625 267.488 337.424 270.377 340.097 271.929L328.606 292.03C327.187 291.41 325.62 291.065 323.972 291.065C323.198 291.065 322.441 291.141 321.71 291.286L315.656 272.482C318.939 271.149 321.255 267.935 321.255 264.178C321.255 259.224 317.229 255.215 312.271 255.215C307.312 255.215 303.287 259.224 303.287 264.178C303.287 269.131 307.312 273.14 312.271 273.14C312.551 273.14 312.828 273.128 313.101 273.103L319.213 292.086C315.207 293.895 312.421 297.917 312.421 302.589C312.421 304.232 312.766 305.795 313.387 307.21L288.536 321.618C286.449 318.629 282.979 316.673 279.05 316.673C276.192 316.673 273.577 317.708 271.56 319.423L257.7 305.784C259.009 304.228 259.798 302.22 259.798 300.028C259.798 295.074 255.772 291.065 250.813 291.065C245.855 291.065 241.829 295.074 241.829 300.028C241.829 304.981 245.855 308.99 250.813 308.99C252.629 308.99 254.32 308.453 255.734 307.528L269.767 321.337C268.681 322.797 267.933 324.522 267.639 326.397L241.697 325.603C241.373 320.944 237.481 317.271 232.735 317.271C227.776 317.271 223.75 321.28 223.75 326.233C223.75 329.544 225.549 332.433 228.222 333.985L216.731 354.086C215.312 353.465 213.745 353.121 212.097 353.121C211.323 353.121 210.566 353.197 209.835 353.342L203.781 334.538C207.063 333.205 209.38 329.991 209.38 326.233C209.38 321.28 205.354 317.271 200.396 317.271C195.437 317.271 191.411 321.28 191.411 326.233C191.411 331.187 195.437 335.196 200.396 335.196C200.676 335.196 200.952 335.183 201.226 335.158L207.338 354.141C203.332 355.95 200.546 359.973 200.546 364.644C200.546 366.288 200.89 367.851 201.512 369.266L176.661 383.674C174.574 380.685 171.103 378.728 167.175 378.728C164.317 378.728 161.702 379.764 159.685 381.479L145.825 367.84C147.134 366.283 147.923 364.276 147.923 362.084C147.923 357.13 143.897 353.121 138.938 353.121C133.98 353.121 129.954 357.13 129.954 362.084C129.954 367.037 133.98 371.046 138.938 371.046C140.754 371.046 142.445 370.509 143.858 369.584L157.892 383.393C156.806 384.853 156.058 386.578 155.764 388.453L129.822 387.659C129.498 383 125.606 379.326 120.859 379.326C115.901 379.326 111.875 383.336 111.875 388.289C111.875 393.242 115.901 397.252 120.859 397.252C125.133 397.252 128.714 394.273 129.622 390.279L155.669 391.283C155.878 393.63 156.792 395.775 158.199 397.505L144.526 411.401C142.992 410.184 141.05 409.457 138.938 409.457C133.98 409.457 129.954 413.466 129.954 418.42C129.954 423.373 133.98 427.382 138.938 427.382C143.897 427.382 147.923 423.373 147.923 418.42C147.923 416.522 147.331 414.762 146.323 413.314L160.072 399.34C162.032 400.866 164.497 401.775 167.175 401.775C170.889 401.775 174.194 400.026 176.308 397.309L201.445 411.394C200.866 412.767 200.546 414.276 200.546 415.859C200.546 420.547 203.352 424.581 207.379 426.381L201.357 445.344C201.089 445.32 200.819 445.308 200.545 445.308C195.587 445.308 191.561 449.317 191.561 454.27C191.561 459.224 195.587 463.233 200.545 463.233C205.504 463.233 209.53 459.224 209.53 454.27C209.53 450.506 207.205 447.287 203.912 445.958L209.88 427.17C210.597 427.31 211.339 427.382 212.097 427.382C213.682 427.382 215.192 427.064 216.567 426.488L227.52 446.542C225.239 448.167 223.75 450.829 223.75 453.841C223.75 458.794 227.776 462.803 232.735 462.803C237.008 462.803 240.589 459.825 241.497 455.831L267.545 456.835C267.753 459.182 268.667 461.327 270.074 463.057L256.402 476.953C254.867 475.736 252.925 475.009 250.813 475.009C245.855 475.009 241.829 479.018 241.829 483.972C241.829 488.925 245.855 492.934 250.813 492.934C255.772 492.934 259.798 488.925 259.798 483.972C259.798 482.074 259.207 480.314 258.198 478.866L271.947 464.892C273.907 466.418 276.372 467.327 279.05 467.327C282.765 467.327 286.07 465.578 288.183 462.861L313.32 476.945C312.741 478.319 312.421 479.828 312.421 481.411C312.421 486.099 315.227 490.133 319.255 491.933L313.232 510.896C312.964 510.872 312.694 510.859 312.42 510.859C307.462 510.859 303.436 514.869 303.436 519.822C303.436 524.775 307.462 528.785 312.42 528.785C317.379 528.785 321.405 524.775 321.405 519.822C321.405 516.058 319.08 512.839 315.788 511.51L321.755 492.722C322.472 492.861 323.214 492.934 323.972 492.934C325.557 492.934 327.067 492.616 328.442 492.04L339.4 512.103C337.058 513.72 335.523 516.418 335.523 519.477C335.523 524.431 339.549 528.44 344.507 528.44C348.812 528.44 352.414 525.418 353.289 521.379L379.42 522.387C379.628 524.734 380.543 526.879 381.949 528.609L368.277 542.505C366.742 541.288 364.8 540.561 362.689 540.561C357.73 540.561 353.704 544.57 353.704 549.524C353.704 554.477 357.73 558.486 362.689 558.486C367.647 558.486 371.673 554.477 371.673 549.524C371.673 547.625 371.082 545.866 370.074 544.418L383.823 530.444C385.782 531.97 388.247 532.879 390.925 532.879C394.64 532.879 397.945 531.13 400.058 528.412L425.195 542.497C424.616 543.871 424.296 545.379 424.296 546.963C424.296 551.651 427.102 555.685 431.13 557.485L425.107 576.447C424.84 576.424 424.569 576.411 424.296 576.411C419.337 576.411 415.311 580.421 415.311 585.374C415.311 590.327 419.337 594.337 424.296 594.337C429.254 594.337 433.28 590.327 433.28 585.374C433.28 581.61 430.955 578.391 427.663 577.062L433.63 558.274C434.348 558.413 435.089 558.486 435.847 558.486C437.432 558.486 438.942 558.168 440.317 557.592L451.27 577.646C448.989 579.27 447.501 581.933 447.501 584.945C447.501 589.898 451.527 593.907 456.485 593.907C460.759 593.907 464.34 590.929 465.247 586.934L491.295 587.939C491.504 590.286 492.418 592.431 493.824 594.161L480.152 608.057C478.617 606.84 476.675 606.113 474.564 606.113C469.605 606.113 465.579 610.122 465.579 615.075C465.579 620.029 469.605 624.038 474.564 624.038C479.522 624.038 483.548 620.029 483.548 615.075C483.548 613.177 482.957 611.418 481.949 609.97L495.698 595.995C497.657 597.521 500.122 598.431 502.8 598.431C506.515 598.431 509.82 596.682 511.933 593.964L537.07 608.049C536.491 609.423 536.171 610.931 536.171 612.515C536.171 617.202 538.977 621.236 543.005 623.036L536.982 641.999C536.715 641.975 536.444 641.963 536.171 641.963C531.212 641.963 527.186 645.972 527.186 650.926C527.186 655.879 531.212 659.888 536.171 659.888C541.129 659.888 545.155 655.879 545.155 650.926C545.155 647.162 542.83 643.943 539.538 642.614L545.505 623.826C546.223 623.965 546.964 624.038 547.722 624.038C549.307 624.038 550.817 623.72 552.192 623.144L563.15 643.206C560.808 644.823 559.273 647.522 559.273 650.581C559.273 655.534 563.299 659.543 568.258 659.543C573.216 659.543 577.242 655.534 577.242 650.581C577.242 645.627 573.216 641.618 568.258 641.618C567.296 641.618 566.37 641.769 565.501 642.048L554.338 621.962C556.025 620.784 557.382 619.169 558.243 617.28L577.264 623.406C577.249 623.615 577.242 623.825 577.242 624.038C577.242 628.991 581.268 633.001 586.226 633.001C591.185 633.001 595.211 628.991 595.211 624.038C595.211 619.085 591.185 615.075 586.226 615.075C582.398 615.075 579.126 617.465 577.833 620.834L559.049 614.785C559.196 614.051 559.274 613.292 559.274 612.515C559.274 606.593 554.796 601.714 549.033 601.065V572.75C554.796 572.101 559.274 567.222 559.274 561.3C559.274 560.857 559.248 560.42 559.2 559.99L577.882 555.667C579.208 558.97 582.446 561.3 586.226 561.3C591.185 561.3 595.211 557.291 595.211 552.337C595.211 547.384 591.185 543.375 586.226 543.375C581.268 543.375 577.242 547.384 577.242 552.337C577.242 552.6 577.253 552.859 577.275 553.116L558.608 557.435C557.823 555.234 556.385 553.341 554.527 551.987L566.248 531.711C566.894 531.858 567.567 531.936 568.258 531.936C573.216 531.936 577.242 527.927 577.242 522.973C577.242 518.02 573.216 514.011 568.258 514.011C567.296 514.011 566.37 514.161 565.501 514.44L554.338 494.354C556.025 493.177 557.382 491.561 558.243 489.672L577.264 495.798C577.257 495.903 577.251 496.009 577.248 496.115C577.244 496.219 577.242 496.325 577.242 496.43C577.242 501.384 581.268 505.393 586.226 505.393C591.185 505.393 595.211 501.384 595.211 496.43C595.211 491.477 591.185 487.468 586.226 487.468C582.398 487.468 579.126 489.858 577.833 493.227L559.049 487.178C559.196 486.444 559.274 485.684 559.274 484.907C559.274 478.985 554.796 474.106 549.033 473.457V445.142C554.796 444.493 559.274 439.614 559.274 433.692C559.274 433.249 559.248 432.812 559.2 432.382L577.882 428.059C579.208 431.362 582.446 433.692 586.226 433.692C591.185 433.692 595.211 429.683 595.211 424.73C595.211 419.776 591.185 415.767 586.226 415.767C581.268 415.767 577.242 419.776 577.242 424.73C577.242 424.992 577.253 425.252 577.275 425.508L558.608 429.828C557.823 427.626 556.385 425.733 554.527 424.38L566.248 404.103C566.894 404.25 567.567 404.328 568.258 404.328C573.216 404.328 577.242 400.319 577.242 395.366C577.242 390.412 573.216 386.403 568.258 386.403C567.296 386.403 566.37 386.554 565.501 386.833L554.338 366.747C556.025 365.569 557.382 363.953 558.243 362.065L577.264 368.191C577.249 368.399 577.242 368.61 577.242 368.823C577.242 373.776 581.268 377.785 586.226 377.785C591.185 377.785 595.211 373.776 595.211 368.823C595.211 363.869 591.185 359.86 586.226 359.86C582.398 359.86 579.126 362.25 577.833 365.619L559.049 359.57C559.196 358.836 559.274 358.077 559.274 357.299C559.274 351.378 554.796 346.499 549.033 345.85V317.535C554.796 316.885 559.274 312.007 559.274 306.085C559.274 305.642 559.248 305.205 559.2 304.775L577.882 300.452C579.208 303.754 582.446 306.085 586.226 306.085C591.185 306.085 595.211 302.076 595.211 297.122C595.211 292.169 591.185 288.16 586.226 288.16C581.268 288.16 577.242 292.169 577.242 297.122C577.242 297.385 577.253 297.644 577.275 297.901L558.608 302.22C557.822 300.019 556.385 298.126 554.527 296.772L566.248 276.496C566.894 276.643 567.567 276.721 568.258 276.721C573.216 276.721 577.242 272.711 577.242 267.758C577.242 262.805 573.216 258.795 568.258 258.795C567.296 258.795 566.37 258.946 565.501 259.225L554.338 239.139C556.025 237.962 557.382 236.346 558.243 234.457L577.264 240.583C577.249 240.792 577.242 241.003 577.242 241.215C577.242 246.169 581.268 250.178 586.226 250.178C591.185 250.178 595.211 246.169 595.211 241.215C595.211 236.262 591.185 232.253 586.226 232.253C582.398 232.253 579.126 234.642 577.833 238.012L559.049 231.962C559.196 231.228 559.274 230.469 559.274 229.692C559.274 223.77 554.796 218.891 549.033 218.242V189.927C554.796 189.278 559.274 184.399 559.274 178.477C559.274 178.034 559.248 177.597 559.2 177.167L577.882 172.844C579.208 176.147 582.446 178.477 586.226 178.477C591.185 178.477 595.211 174.468 595.211 169.515C595.211 164.561 591.185 160.552 586.226 160.552C581.268 160.552 577.242 164.561 577.242 169.515C577.242 169.777 577.253 170.037 577.275 170.293L558.608 174.613C557.822 172.411 556.385 170.518 554.527 169.165L566.291 148.814C566.924 148.955 567.582 149.03 568.258 149.03C573.216 149.03 577.242 145.021 577.242 140.067C577.242 135.114 573.216 131.105 568.258 131.105C563.299 131.105 559.273 135.114 559.273 140.067C559.273 143.409 561.106 146.322 563.822 147.863L552.356 167.919C550.938 167.298 549.37 166.954 547.722 166.954C546.948 166.954 546.192 167.03 545.46 167.175L539.406 148.371C542.689 147.038 545.005 143.824 545.005 140.066C545.005 135.113 540.98 131.104 536.021 131.104C531.063 131.104 527.037 135.113 527.037 140.066ZM563.786 403.141C561.09 401.595 559.273 398.693 559.273 395.366C559.273 392.307 560.808 389.608 563.15 387.991L552.192 367.928C550.817 368.504 549.307 368.823 547.722 368.823C546.964 368.823 546.223 368.75 545.505 368.611L539.64 387.076C541.979 388.104 543.796 390.098 544.581 392.552C544.952 393.534 545.155 394.599 545.155 395.711C545.155 399.472 542.834 402.689 539.546 404.019L545.46 422.39C546.192 422.245 546.948 422.169 547.722 422.169C549.37 422.169 550.938 422.513 552.356 423.134L563.786 403.141ZM527.61 398.439C528.768 402.056 532.165 404.673 536.171 404.673C536.447 404.673 536.72 404.661 536.99 404.636L542.963 423.189C538.958 424.998 536.171 429.021 536.171 433.692C536.171 435.336 536.516 436.899 537.137 438.314L512.286 452.722C510.199 449.733 506.729 447.776 502.8 447.776C499.943 447.776 497.327 448.812 495.31 450.527L481.218 436.659C482.539 435.099 483.336 433.082 483.336 430.879C483.336 425.925 479.31 421.916 474.351 421.916C470.523 421.916 467.251 424.306 465.958 427.675L447.174 421.626C447.321 420.892 447.398 420.132 447.398 419.355C447.398 413.433 442.92 408.555 437.158 407.905V379.59C442.92 378.941 447.398 374.062 447.398 368.14C447.398 367.697 447.373 367.26 447.325 366.83L465.98 362.514C467.114 366.17 470.53 368.823 474.564 368.823C479.522 368.823 483.548 364.814 483.548 359.86C483.548 357.962 482.957 356.203 481.949 354.754L495.698 340.78C497.657 342.306 500.122 343.215 502.8 343.215C506.515 343.215 509.82 341.467 511.933 338.749L537.07 352.834C536.491 354.207 536.171 355.716 536.171 357.299C536.171 361.987 538.977 366.021 543.005 367.821L537.109 386.384C536.752 386.341 536.389 386.319 536.021 386.319C531.063 386.319 527.037 390.328 527.037 395.281C527.037 396.393 527.24 397.457 527.61 398.439ZM479.245 438.396C477.836 439.31 476.155 439.841 474.351 439.841C469.393 439.841 465.367 435.832 465.367 430.879C465.367 430.666 465.374 430.455 465.389 430.246L446.367 424.121C445.507 426.009 444.15 427.625 442.463 428.803L453.626 448.889C454.495 448.609 455.421 448.459 456.382 448.459C461.099 448.459 464.972 452.086 465.338 456.703L491.389 457.501C491.684 455.626 492.432 453.901 493.517 452.441L479.245 438.396ZM465.164 459.324C464.289 463.362 460.687 466.384 456.382 466.384C455.692 466.384 455.019 466.306 454.373 466.159L442.652 486.436C444.51 487.789 445.947 489.682 446.733 491.884L465.58 487.523L465.579 487.468C465.579 482.514 469.605 478.505 474.564 478.505C476.675 478.505 478.618 479.232 480.152 480.449L493.824 466.553C492.418 464.823 491.504 462.678 491.295 460.331L465.164 459.324ZM451.911 465.197C449.215 463.65 447.398 460.749 447.398 457.421C447.398 454.363 448.933 451.664 451.275 450.047L440.317 429.984C438.942 430.56 437.432 430.879 435.847 430.879C435.089 430.879 434.348 430.806 433.63 430.666L427.663 449.455C430.955 450.783 433.28 454.002 433.28 457.766C433.28 461.528 430.959 464.744 427.67 466.075L433.585 484.446C434.317 484.301 435.073 484.225 435.847 484.225C437.495 484.225 439.063 484.569 440.481 485.189L451.911 465.197ZM425.115 466.692C424.845 466.717 424.572 466.729 424.296 466.729C419.337 466.729 415.311 462.72 415.311 457.766C415.311 452.813 419.337 448.804 424.296 448.804C424.569 448.804 424.84 448.816 425.107 448.84L431.13 429.877C427.102 428.077 424.296 424.043 424.296 419.355C424.296 417.772 424.616 416.263 425.195 414.89L400.058 400.805C397.945 403.522 394.64 405.271 390.925 405.271C388.247 405.271 385.782 404.362 383.823 402.836L370.074 416.81C371.082 418.258 371.673 420.018 371.673 421.916C371.673 426.869 367.647 430.879 362.689 430.879C358.655 430.879 355.239 428.226 354.104 424.57L335.449 428.886C335.498 429.316 335.523 429.753 335.523 430.196C335.523 436.118 331.045 440.997 325.283 441.646V469.961C331.045 470.61 335.523 475.489 335.523 481.411C335.523 482.188 335.446 482.947 335.299 483.682L354.083 489.731C355.375 486.362 358.648 483.972 362.476 483.972C365.301 483.972 367.823 485.273 369.47 487.308C370.842 488.882 371.673 490.937 371.673 493.187C371.673 495.38 370.884 497.387 369.575 498.944L383.435 512.583C385.452 510.867 388.067 509.832 390.925 509.832C394.854 509.832 398.324 511.788 400.411 514.778L425.262 500.369C424.641 498.955 424.296 497.392 424.296 495.748C424.296 491.076 427.083 487.054 431.088 485.245L425.115 466.692ZM355.695 498.814C354.323 497.24 353.492 495.185 353.492 492.934C353.492 492.722 353.499 492.511 353.514 492.302L334.492 486.176C333.631 488.065 332.275 489.681 330.588 490.858L341.751 510.944C342.62 510.665 343.546 510.515 344.507 510.515C349.224 510.515 353.096 514.142 353.463 518.759L379.514 519.556C379.809 517.682 380.556 515.957 381.642 514.497L367.609 500.688C366.195 501.612 364.504 502.15 362.689 502.15C359.864 502.15 357.342 500.849 355.695 498.814ZM330.777 293.276L342.553 272.904C343.214 273.059 343.902 273.14 344.61 273.14C348.883 273.14 352.465 270.162 353.372 266.167L379.42 267.172C379.628 269.519 380.542 271.664 381.949 273.394L368.545 287.017C366.946 285.555 364.815 284.663 362.476 284.663C357.518 284.663 353.492 288.673 353.492 293.626C353.492 293.888 353.503 294.148 353.525 294.405L334.858 298.724C334.072 296.522 332.635 294.629 330.777 293.276ZM370.211 289.063C370.622 289.756 370.943 290.509 371.157 291.306C371.491 292.245 371.673 293.255 371.673 294.308C371.673 299.262 367.647 303.271 362.689 303.271C358.655 303.271 355.239 300.618 354.104 296.962L335.449 301.279C335.498 301.708 335.523 302.146 335.523 302.589C335.523 308.511 331.045 313.389 325.283 314.039V342.353C331.045 343.003 335.523 347.881 335.523 353.803C335.523 354.581 335.446 355.34 335.299 356.074L354.36 362.212C355.695 358.93 358.923 356.617 362.689 356.617C367.647 356.617 371.673 360.626 371.673 365.58C371.673 367.772 370.884 369.779 369.575 371.336L383.435 384.975C385.452 383.26 388.067 382.224 390.925 382.224C394.854 382.224 398.324 384.181 400.411 387.17L425.262 372.762C424.641 371.347 424.296 369.784 424.296 368.14C424.296 363.469 427.082 359.447 431.088 357.637L425.114 339.085C424.845 339.109 424.572 339.121 424.296 339.121C419.337 339.121 415.311 335.112 415.311 330.159C415.311 325.205 419.337 321.196 424.296 321.196C424.569 321.196 424.84 321.208 425.107 321.232L431.13 302.269C427.102 300.469 424.296 296.435 424.296 291.748C424.296 290.164 424.616 288.655 425.195 287.282L400.058 273.197C397.945 275.915 394.64 277.664 390.925 277.664C388.247 277.664 385.782 276.754 383.823 275.228L370.211 289.063ZM334.492 358.569L353.741 364.768C353.717 365.035 353.704 365.306 353.704 365.58C353.704 370.533 357.73 374.542 362.689 374.542C364.504 374.542 366.195 374.005 367.609 373.08L381.642 386.889C380.556 388.349 379.809 390.074 379.514 391.949L353.572 391.155C353.248 386.496 349.356 382.823 344.61 382.823C343.602 382.823 342.632 382.988 341.727 383.294L330.588 363.251C332.275 362.073 333.631 360.457 334.492 358.569ZM328.442 364.432L339.395 384.486C337.114 386.111 335.625 388.773 335.625 391.785C335.625 395.096 337.424 397.985 340.097 399.537L328.606 419.638C327.187 419.017 325.62 418.673 323.972 418.673C323.198 418.673 322.441 418.749 321.71 418.894L315.795 400.523C319.083 399.193 321.405 395.976 321.405 392.215C321.405 388.45 319.08 385.231 315.788 383.903L321.755 365.115C322.472 365.254 323.214 365.327 323.972 365.327C325.557 365.327 327.067 365.008 328.442 364.432ZM330.777 420.884L342.553 400.512C343.214 400.666 343.902 400.748 344.61 400.748C348.884 400.748 352.465 397.769 353.372 393.775L379.42 394.779C379.628 397.126 380.542 399.271 381.949 401.001L368.277 414.898C366.742 413.68 364.8 412.953 362.689 412.953C357.73 412.953 353.704 416.963 353.704 421.916L353.704 421.971L334.858 426.332C334.072 424.13 332.635 422.237 330.777 420.884ZM446.733 364.276L465.58 359.915L465.579 359.86C465.579 354.907 469.605 350.898 474.564 350.898C476.675 350.898 478.617 351.625 480.152 352.842L493.824 338.946C492.418 337.216 491.503 335.071 491.295 332.724L465.247 331.719C464.34 335.714 460.759 338.692 456.485 338.692C455.777 338.692 455.089 338.61 454.428 338.456L442.652 358.828C444.51 360.181 445.947 362.074 446.733 364.276ZM440.481 357.582L451.972 337.481C449.299 335.929 447.501 333.04 447.501 329.729C447.501 326.718 448.989 324.055 451.27 322.43L440.317 302.376C438.942 302.953 437.432 303.271 435.847 303.271C435.089 303.271 434.348 303.198 433.63 303.059L427.663 321.847C430.955 323.176 433.28 326.395 433.28 330.159C433.28 333.92 430.959 337.137 427.67 338.467L433.585 356.838C434.317 356.693 435.073 356.617 435.847 356.617C437.495 356.617 439.063 356.961 440.481 357.582ZM426.584 375.026C428.444 377.512 431.286 379.224 434.536 379.59V407.905C431.226 408.278 428.341 410.046 426.483 412.606L401.422 398.564C402.099 397.098 402.477 395.467 402.477 393.748C402.477 392.239 402.186 390.798 401.658 389.478L426.584 375.026ZM442.652 231.22C444.51 232.574 445.947 234.467 446.733 236.668L465.58 232.307L465.579 232.253C465.579 227.299 469.605 223.29 474.564 223.29C476.675 223.29 478.617 224.017 480.152 225.234L493.824 211.338C492.418 209.608 491.503 207.463 491.295 205.116L465.247 204.112C464.34 208.106 460.759 211.084 456.485 211.084C455.777 211.084 455.089 211.003 454.428 210.848L442.652 231.22ZM447.398 240.533C447.398 246.455 442.92 251.333 437.158 251.983V280.298C442.92 280.947 447.398 285.826 447.398 291.748C447.398 292.525 447.321 293.284 447.174 294.018L466.235 300.157C467.57 296.874 470.798 294.561 474.564 294.561C479.522 294.561 483.548 298.571 483.548 303.524C483.548 305.716 482.759 307.724 481.45 309.281L495.31 322.919C497.327 321.204 499.943 320.169 502.8 320.169C506.729 320.169 510.199 322.125 512.286 325.114L537.137 310.706C536.516 309.291 536.171 307.728 536.171 306.085C536.171 301.413 538.958 297.391 542.963 295.582L536.99 277.029C536.72 277.053 536.447 277.066 536.171 277.066C531.212 277.066 527.186 273.056 527.186 268.103C527.186 263.15 531.212 259.14 536.171 259.14C536.444 259.14 536.715 259.153 536.982 259.176L543.005 240.214C538.977 238.414 536.171 234.38 536.171 229.692C536.171 228.109 536.491 226.6 537.07 225.226L511.933 211.142C509.82 213.859 506.515 215.608 502.8 215.608C500.122 215.608 497.657 214.699 495.698 213.173L481.949 227.147C482.957 228.595 483.548 230.355 483.548 232.253C483.548 237.206 479.522 241.215 474.564 241.215C470.53 241.215 467.114 238.562 465.98 234.906L447.325 239.223C447.373 239.653 447.398 240.09 447.398 240.533ZM434.536 251.983C431.286 251.616 428.444 249.905 426.584 247.419L401.658 261.87C402.186 263.191 402.477 264.632 402.477 266.14C402.477 267.86 402.099 269.491 401.422 270.956L426.483 284.998C428.341 282.439 431.226 280.671 434.536 280.298V251.983ZM442.463 301.195L453.602 321.238C454.507 320.933 455.477 320.767 456.485 320.767C461.231 320.767 465.123 324.44 465.447 329.099L491.389 329.893C491.684 328.018 492.432 326.293 493.517 324.833L479.484 311.024C478.07 311.949 476.379 312.487 474.564 312.487C469.605 312.487 465.579 308.477 465.579 303.524C465.579 303.25 465.592 302.979 465.616 302.712L446.367 296.513C445.507 298.401 444.15 300.017 442.463 301.195ZM547.722 294.561C549.37 294.561 550.938 294.906 552.356 295.526L563.786 275.533C561.09 273.987 559.273 271.086 559.273 267.758C559.273 264.699 560.808 262.001 563.15 260.384L552.192 240.321C550.817 240.897 549.307 241.215 547.722 241.215C546.964 241.215 546.223 241.142 545.505 241.003L539.538 259.791C542.83 261.12 545.155 264.339 545.155 268.103C545.155 271.864 542.834 275.081 539.546 276.412L545.46 294.782C546.192 294.637 546.948 294.561 547.722 294.561ZM513.533 327.422L538.459 312.971C540.319 315.456 543.161 317.168 546.411 317.535V345.85C543.102 346.223 540.216 347.991 538.359 350.55L513.298 336.508C513.974 335.043 514.352 333.411 514.352 331.692C514.352 330.184 514.061 328.743 513.533 327.422ZM513.533 199.815L538.459 185.363C540.319 187.849 543.161 189.561 546.411 189.927V218.242C543.102 218.615 540.216 220.383 538.359 222.943L513.298 208.901C513.974 207.435 514.352 205.804 514.352 204.085C514.352 202.576 514.061 201.135 513.533 199.815ZM561.895 140.067C561.895 143.565 564.74 146.408 568.258 146.408C571.775 146.408 574.62 143.565 574.62 140.067C574.62 136.569 571.775 133.727 568.258 133.727C564.74 133.727 561.895 136.569 561.895 140.067ZM586.226 175.855C582.709 175.855 579.864 173.013 579.864 169.515C579.864 166.016 582.709 163.174 586.226 163.174C589.744 163.174 592.589 166.016 592.589 169.515C592.589 173.013 589.744 175.855 586.226 175.855ZM579.864 241.215C579.864 244.713 582.709 247.556 586.226 247.556C589.744 247.556 592.589 244.713 592.589 241.215C592.589 237.717 589.744 234.875 586.226 234.875C582.709 234.875 579.864 237.717 579.864 241.215ZM568.258 274.099C564.74 274.099 561.895 271.256 561.895 267.758C561.895 264.26 564.74 261.418 568.258 261.418C571.775 261.418 574.62 264.26 574.62 267.758C574.62 271.256 571.775 274.099 568.258 274.099ZM529.808 268.103C529.808 271.601 532.653 274.444 536.171 274.444C539.688 274.444 542.533 271.601 542.533 268.103C542.533 264.605 539.688 261.763 536.171 261.763C532.653 261.763 529.808 264.605 529.808 268.103ZM474.564 238.593C471.046 238.593 468.201 235.751 468.201 232.253C468.201 228.754 471.046 225.912 474.564 225.912C478.081 225.912 480.926 228.754 480.926 232.253C480.926 235.751 478.081 238.593 474.564 238.593ZM450.123 202.122C450.123 205.62 452.968 208.462 456.485 208.462C460.002 208.462 462.847 205.62 462.847 202.122C462.847 198.624 460.002 195.781 456.485 195.781C452.968 195.781 450.123 198.624 450.123 202.122ZM474.564 182.257C471.046 182.257 468.201 179.415 468.201 175.916C468.201 172.418 471.046 169.576 474.564 169.576C478.081 169.576 480.926 172.418 480.926 175.916C480.926 179.415 478.081 182.257 474.564 182.257ZM586.226 303.463C582.709 303.463 579.864 300.62 579.864 297.122C579.864 293.624 582.709 290.782 586.226 290.782C589.744 290.782 592.589 293.624 592.589 297.122C592.589 300.62 589.744 303.463 586.226 303.463ZM579.864 368.823C579.864 372.321 582.709 375.163 586.226 375.163C589.744 375.163 592.589 372.321 592.589 368.823C592.589 365.325 589.744 362.482 586.226 362.482C582.709 362.482 579.864 365.325 579.864 368.823ZM568.258 401.706C564.74 401.706 561.895 398.864 561.895 395.366C561.895 391.867 564.74 389.025 568.258 389.025C571.775 389.025 574.62 391.867 574.62 395.366C574.62 398.864 571.775 401.706 568.258 401.706ZM542.104 393.417C542.286 394.007 542.383 394.633 542.383 395.281C542.383 398.78 539.538 401.622 536.021 401.622C533.317 401.622 531.01 399.942 530.088 397.575C529.906 396.985 529.808 396.359 529.808 395.711C529.808 392.212 532.653 389.37 536.171 389.37C538.875 389.37 541.182 391.05 542.104 393.417ZM474.564 366.201C471.046 366.201 468.201 363.359 468.201 359.86C468.201 356.362 471.046 353.52 474.564 353.52C478.081 353.52 480.926 356.362 480.926 359.86C480.926 363.359 478.081 366.201 474.564 366.201ZM450.123 329.729C450.123 333.228 452.968 336.07 456.485 336.07C460.002 336.07 462.847 333.228 462.847 329.729C462.847 326.231 460.002 323.389 456.485 323.389C452.968 323.389 450.123 326.231 450.123 329.729ZM474.564 309.865C471.046 309.865 468.201 307.022 468.201 303.524C468.201 300.026 471.046 297.184 474.564 297.184C478.081 297.184 480.926 300.026 480.926 303.524C480.926 307.022 478.081 309.865 474.564 309.865ZM424.146 208.462C420.629 208.462 417.784 205.62 417.784 202.122C417.784 198.624 420.629 195.781 424.146 195.781C427.663 195.781 430.508 198.624 430.508 202.122C430.508 205.62 427.663 208.462 424.146 208.462ZM417.933 330.159C417.933 333.657 420.778 336.499 424.296 336.499C427.813 336.499 430.658 333.657 430.658 330.159C430.658 326.66 427.813 323.818 424.296 323.818C420.778 323.818 417.933 326.66 417.933 330.159ZM368.838 293.626C368.838 293.096 368.773 292.581 368.65 292.088C367.747 289.683 365.421 287.968 362.689 287.968C359.171 287.968 356.326 290.81 356.326 294.308C356.326 294.839 356.392 295.354 356.515 295.846C357.417 298.251 359.744 299.967 362.476 299.967C365.993 299.967 368.838 297.124 368.838 293.626ZM338.247 264.178C338.247 267.676 341.092 270.518 344.61 270.518C348.127 270.518 350.972 267.676 350.972 264.178C350.972 260.679 348.127 257.837 344.61 257.837C341.092 257.837 338.247 260.679 338.247 264.178ZM362.689 244.313C359.171 244.313 356.326 241.47 356.326 237.972C356.326 234.474 359.171 231.632 362.689 231.632C366.206 231.632 369.051 234.474 369.051 237.972C369.051 241.47 366.206 244.313 362.689 244.313ZM474.351 437.219C470.834 437.219 467.989 434.377 467.989 430.879C467.989 427.38 470.834 424.538 474.351 424.538C477.868 424.538 480.713 427.38 480.713 430.879C480.713 434.377 477.868 437.219 474.351 437.219ZM450.02 457.421C450.02 460.92 452.865 463.762 456.382 463.762C459.9 463.762 462.745 460.92 462.745 457.421C462.745 453.923 459.9 451.081 456.382 451.081C452.865 451.081 450.02 453.923 450.02 457.421ZM424.296 464.107C420.778 464.107 417.933 461.265 417.933 457.766C417.933 454.268 420.778 451.426 424.296 451.426C427.813 451.426 430.658 454.268 430.658 457.766C430.658 461.265 427.813 464.107 424.296 464.107ZM356.326 421.916C356.326 425.414 359.171 428.256 362.689 428.256C366.206 428.256 369.051 425.414 369.051 421.916C369.051 418.418 366.206 415.575 362.689 415.575C359.171 415.575 356.326 418.418 356.326 421.916ZM344.61 398.126C341.092 398.126 338.247 395.283 338.247 391.785C338.247 388.287 341.092 385.445 344.61 385.445C348.127 385.445 350.972 388.287 350.972 391.785C350.972 395.283 348.127 398.126 344.61 398.126ZM356.326 365.58C356.326 369.078 359.171 371.92 362.689 371.92C366.206 371.92 369.051 369.078 369.051 365.58C369.051 362.081 366.206 359.239 362.689 359.239C359.171 359.239 356.326 362.081 356.326 365.58ZM305.909 264.178C305.909 267.676 308.754 270.518 312.271 270.518C315.788 270.518 318.633 267.676 318.633 264.178C318.633 260.679 315.788 257.837 312.271 257.837C308.754 257.837 305.909 260.679 305.909 264.178ZM222.982 360.78C222.197 358.578 220.76 356.685 218.902 355.332L230.678 334.96C231.338 335.114 232.027 335.196 232.735 335.196C237.008 335.196 240.589 332.217 241.497 328.223L267.545 329.227C267.753 331.575 268.667 333.719 270.074 335.45L256.402 349.346C254.867 348.128 252.925 347.402 250.813 347.402C245.855 347.402 241.829 351.411 241.829 356.364L241.829 356.419L222.982 360.78ZM213.408 376.094C219.17 375.445 223.648 370.566 223.648 364.644C223.648 364.201 223.623 363.764 223.574 363.334L242.229 359.018C243.364 362.674 246.78 365.327 250.813 365.327C255.772 365.327 259.798 361.318 259.798 356.364C259.798 354.466 259.207 352.707 258.198 351.258L271.947 337.284C273.907 338.81 276.372 339.719 279.05 339.719C282.765 339.719 286.07 337.97 288.183 335.253L313.32 349.338C312.741 350.711 312.421 352.22 312.421 353.803C312.421 358.491 315.227 362.525 319.255 364.325L313.232 383.288C312.964 383.264 312.694 383.252 312.42 383.252C307.462 383.252 303.436 387.261 303.436 392.215C303.436 397.168 307.462 401.177 312.42 401.177C312.696 401.177 312.97 401.165 313.239 401.14L319.213 419.693C315.207 421.502 312.421 425.525 312.421 430.196C312.421 431.84 312.766 433.403 313.387 434.818L288.536 449.226C286.449 446.237 282.979 444.28 279.05 444.28C276.192 444.28 273.577 445.316 271.56 447.031L257.7 433.392C259.009 431.835 259.798 429.828 259.798 427.635C259.798 422.682 255.772 418.673 250.813 418.673C247.048 418.673 243.82 420.986 242.485 424.268L223.424 418.13C223.571 417.396 223.648 416.636 223.648 415.859C223.648 409.937 219.17 405.058 213.408 404.409V376.094ZM202.834 371.53C204.694 374.016 207.535 375.728 210.786 376.094V404.409C207.476 404.782 204.59 406.55 202.733 409.11L177.672 395.068C178.349 393.602 178.726 391.971 178.726 390.252C178.726 388.743 178.436 387.302 177.907 385.982L202.834 371.53ZM229.852 445.35L218.713 425.306C220.399 424.129 221.756 422.513 222.617 420.625L241.865 426.823C241.841 427.091 241.829 427.362 241.829 427.635C241.829 432.589 245.855 436.598 250.813 436.598C252.629 436.598 254.32 436.06 255.734 435.136L269.767 448.945C268.681 450.405 267.933 452.13 267.639 454.005L241.697 453.21C241.373 448.552 237.481 444.878 232.735 444.878C231.727 444.878 230.757 445.044 229.852 445.35ZM314.709 437.082L289.783 451.534C290.311 452.854 290.601 454.295 290.601 455.804C290.601 457.523 290.224 459.154 289.547 460.62L314.608 474.662C316.465 472.102 319.351 470.334 322.661 469.961V441.646C319.41 441.28 316.569 439.568 314.709 437.082ZM322.661 314.038C319.41 313.672 316.569 311.96 314.709 309.474L289.783 323.926C290.311 325.247 290.601 326.687 290.601 328.196C290.601 329.915 290.224 331.547 289.547 333.012L314.608 347.054C316.465 344.495 319.351 342.726 322.661 342.353V314.038ZM306.058 392.215C306.058 395.713 308.903 398.555 312.42 398.555C315.938 398.555 318.783 395.713 318.783 392.215C318.783 388.716 315.938 385.874 312.42 385.874C308.903 385.874 306.058 388.716 306.058 392.215ZM250.813 362.705C247.296 362.705 244.451 359.862 244.451 356.364C244.451 352.866 247.296 350.024 250.813 350.024C254.331 350.024 257.176 352.866 257.176 356.364C257.176 359.862 254.331 362.705 250.813 362.705ZM226.372 326.233C226.372 329.732 229.217 332.574 232.735 332.574C236.252 332.574 239.097 329.732 239.097 326.233C239.097 322.735 236.252 319.893 232.735 319.893C229.217 319.893 226.372 322.735 226.372 326.233ZM250.813 306.368C247.296 306.368 244.451 303.526 244.451 300.028C244.451 296.53 247.296 293.687 250.813 293.687C254.331 293.687 257.176 296.53 257.176 300.028C257.176 303.526 254.331 306.368 250.813 306.368ZM367.461 488.994C366.295 487.678 364.59 486.847 362.689 486.847C359.171 486.847 356.326 489.689 356.326 493.187C356.326 494.676 356.842 496.046 357.704 497.128C358.87 498.444 360.575 499.275 362.476 499.275C365.993 499.275 368.838 496.433 368.838 492.934C368.838 491.446 368.323 490.076 367.461 488.994ZM338.145 519.477C338.145 522.975 340.99 525.818 344.507 525.818C348.025 525.818 350.87 522.975 350.87 519.477C350.87 515.979 348.025 513.137 344.507 513.137C340.99 513.137 338.145 515.979 338.145 519.477ZM312.42 526.163C308.903 526.163 306.058 523.32 306.058 519.822C306.058 516.324 308.903 513.482 312.42 513.482C315.938 513.482 318.783 516.324 318.783 519.822C318.783 523.32 315.938 526.163 312.42 526.163ZM244.451 483.972C244.451 487.47 247.296 490.312 250.813 490.312C254.331 490.312 257.176 487.47 257.176 483.972C257.176 480.473 254.331 477.631 250.813 477.631C247.296 477.631 244.451 480.473 244.451 483.972ZM232.735 460.181C229.217 460.181 226.372 457.339 226.372 453.841C226.372 450.343 229.217 447.5 232.735 447.5C236.252 447.5 239.097 450.343 239.097 453.841C239.097 457.339 236.252 460.181 232.735 460.181ZM244.451 427.635C244.451 431.134 247.296 433.976 250.813 433.976C254.331 433.976 257.176 431.134 257.176 427.635C257.176 424.137 254.331 421.295 250.813 421.295C247.296 421.295 244.451 424.137 244.451 427.635ZM194.033 326.233C194.033 329.732 196.878 332.574 200.396 332.574C203.913 332.574 206.758 329.732 206.758 326.233C206.758 322.735 203.913 319.893 200.396 319.893C196.878 319.893 194.033 322.735 194.033 326.233ZM200.545 460.611C197.028 460.611 194.183 457.768 194.183 454.27C194.183 450.772 197.028 447.93 200.545 447.93C204.063 447.93 206.908 450.772 206.908 454.27C206.908 457.768 204.063 460.611 200.545 460.611ZM132.576 418.42C132.576 421.918 135.421 424.76 138.938 424.76C142.456 424.76 145.301 421.918 145.301 418.42C145.301 414.922 142.456 412.079 138.938 412.079C135.421 412.079 132.576 414.922 132.576 418.42ZM120.859 394.63C117.342 394.63 114.497 391.787 114.497 388.289C114.497 384.791 117.342 381.949 120.859 381.949C124.377 381.949 127.222 384.791 127.222 388.289C127.222 391.787 124.377 394.63 120.859 394.63ZM132.576 362.084C132.576 365.582 135.421 368.424 138.938 368.424C142.456 368.424 145.301 365.582 145.301 362.084C145.301 358.585 142.456 355.743 138.938 355.743C135.421 355.743 132.576 358.585 132.576 362.084ZM401.658 517.086L426.584 502.634C428.444 505.12 431.286 506.832 434.536 507.198V535.513C431.226 535.886 428.341 537.654 426.484 540.214L401.423 526.171C402.099 524.706 402.477 523.075 402.477 521.355C402.477 519.847 402.186 518.406 401.658 517.086ZM437.158 535.513V507.198C442.92 506.549 447.398 501.67 447.398 495.748C447.398 495.305 447.373 494.868 447.325 494.438L465.98 490.121C467.114 493.777 470.53 496.43 474.564 496.43C479.522 496.43 483.548 492.421 483.548 487.468C483.548 485.57 482.957 483.81 481.949 482.362L495.698 468.388C497.657 469.914 500.122 470.823 502.8 470.823C506.515 470.823 509.82 469.074 511.933 466.357L537.07 480.441C536.491 481.815 536.171 483.324 536.171 484.907C536.171 489.595 538.977 493.629 543.005 495.429L536.982 514.392C536.715 514.368 536.444 514.356 536.171 514.356C531.212 514.356 527.186 518.365 527.186 523.318C527.186 528.272 531.212 532.281 536.171 532.281C536.447 532.281 536.72 532.268 536.99 532.244L542.963 550.797C538.958 552.606 536.171 556.628 536.171 561.3C536.171 562.943 536.516 564.507 537.137 565.921L512.286 580.329C510.199 577.34 506.729 575.384 502.8 575.384C499.943 575.384 497.327 576.419 495.31 578.135L481.45 564.496C482.759 562.939 483.548 560.932 483.548 558.739C483.548 553.786 479.522 549.777 474.564 549.777C470.798 549.777 467.57 552.089 466.235 555.372L447.174 549.233C447.321 548.499 447.398 547.74 447.398 546.963C447.398 541.041 442.92 536.162 437.158 535.513ZM442.463 556.41C444.15 555.232 445.507 553.617 446.368 551.728L465.616 557.927C465.592 558.194 465.579 558.465 465.579 558.739C465.579 563.693 469.605 567.702 474.564 567.702C476.38 567.702 478.07 567.164 479.484 566.239L493.517 580.049C492.432 581.509 491.684 583.233 491.389 585.108L465.447 584.314C465.123 579.655 461.231 575.982 456.485 575.982C455.477 575.982 454.507 576.148 453.602 576.453L442.463 556.41ZM563.786 530.748L552.356 550.741C550.938 550.121 549.37 549.777 547.722 549.777C546.948 549.777 546.192 549.853 545.46 549.997L539.546 531.627C542.834 530.296 545.155 527.079 545.155 523.318C545.155 519.554 542.83 516.335 539.538 515.006L545.505 496.218C546.223 496.357 546.964 496.43 547.722 496.43C549.307 496.43 550.817 496.112 552.192 495.536L563.15 515.599C560.808 517.216 559.273 519.914 559.273 522.973C559.273 526.301 561.09 529.202 563.786 530.748ZM546.411 572.75C543.161 572.384 540.319 570.672 538.459 568.186L513.533 582.638C514.061 583.958 514.352 585.399 514.352 586.907C514.352 588.627 513.974 590.258 513.298 591.723L538.359 605.765C540.216 603.206 543.102 601.438 546.411 601.065V572.75ZM546.411 445.142C543.161 444.776 540.319 443.064 538.459 440.578L513.533 455.03C514.061 456.35 514.352 457.791 514.352 459.3C514.352 461.019 513.974 462.65 513.298 464.116L538.359 478.158C540.216 475.598 543.102 473.83 546.411 473.457V445.142ZM586.226 431.07C582.709 431.07 579.864 428.228 579.864 424.73C579.864 421.231 582.709 418.389 586.226 418.389C589.744 418.389 592.589 421.231 592.589 424.73C592.589 428.228 589.744 431.07 586.226 431.07ZM579.864 496.43C579.864 499.929 582.709 502.771 586.226 502.771C589.744 502.771 592.589 499.929 592.589 496.43C592.589 492.932 589.744 490.09 586.226 490.09C582.709 490.09 579.864 492.932 579.864 496.43ZM568.258 529.314C564.74 529.314 561.895 526.471 561.895 522.973C561.895 519.475 564.74 516.633 568.258 516.633C571.775 516.633 574.62 519.475 574.62 522.973C574.62 526.471 571.775 529.314 568.258 529.314ZM529.808 523.318C529.808 526.816 532.653 529.659 536.171 529.659C539.688 529.659 542.533 526.816 542.533 523.318C542.533 519.82 539.688 516.978 536.171 516.978C532.653 516.978 529.808 519.82 529.808 523.318ZM474.564 493.808C471.046 493.808 468.201 490.966 468.201 487.468C468.201 483.97 471.046 481.127 474.564 481.127C478.081 481.127 480.926 483.97 480.926 487.468C480.926 490.966 478.081 493.808 474.564 493.808ZM586.226 558.678C582.709 558.678 579.864 555.836 579.864 552.337C579.864 548.839 582.709 545.997 586.226 545.997C589.744 545.997 592.589 548.839 592.589 552.337C592.589 555.836 589.744 558.678 586.226 558.678ZM579.864 624.038C579.864 627.536 582.709 630.379 586.226 630.379C589.744 630.379 592.589 627.536 592.589 624.038C592.589 620.54 589.744 617.698 586.226 617.698C582.709 617.698 579.864 620.54 579.864 624.038ZM568.258 656.921C564.74 656.921 561.895 654.079 561.895 650.581C561.895 647.083 564.74 644.24 568.258 644.24C571.775 644.24 574.62 647.083 574.62 650.581C574.62 654.079 571.775 656.921 568.258 656.921ZM529.808 650.926C529.808 654.424 532.653 657.266 536.171 657.266C539.688 657.266 542.533 654.424 542.533 650.926C542.533 647.428 539.688 644.585 536.171 644.585C532.653 644.585 529.808 647.428 529.808 650.926ZM474.564 621.416C471.046 621.416 468.201 618.574 468.201 615.075C468.201 611.577 471.046 608.735 474.564 608.735C478.081 608.735 480.926 611.577 480.926 615.075C480.926 618.574 478.081 621.416 474.564 621.416ZM450.123 584.945C450.123 588.443 452.968 591.285 456.485 591.285C460.002 591.285 462.847 588.443 462.847 584.945C462.847 581.446 460.002 578.604 456.485 578.604C452.968 578.604 450.123 581.446 450.123 584.945ZM474.564 565.08C471.046 565.08 468.201 562.237 468.201 558.739C468.201 555.241 471.046 552.399 474.564 552.399C478.081 552.399 480.926 555.241 480.926 558.739C480.926 562.237 478.081 565.08 474.564 565.08ZM424.296 591.714C420.778 591.714 417.933 588.872 417.933 585.374C417.933 581.876 420.778 579.033 424.296 579.033C427.813 579.033 430.658 581.876 430.658 585.374C430.658 588.872 427.813 591.714 424.296 591.714ZM356.326 549.524C356.326 553.022 359.171 555.864 362.689 555.864C366.206 555.864 369.051 553.022 369.051 549.524C369.051 546.025 366.206 543.183 362.689 543.183C359.171 543.183 356.326 546.025 356.326 549.524Z" fill="#F8F7F2"/>
<path fill-rule="evenodd" clip-rule="evenodd" d="M200.882 206.485L203.378 205.681L212.473 233.927L228.947 205.109L231.179 206.485L211.721 240.147L200.882 206.485Z" fill="#F8F7F2"/>
<path fill-rule="evenodd" clip-rule="evenodd" d="M142.898 241.031L144.737 239.163L167.382 261.446L211.609 235.804L243.257 228.481L243.849 231.035L212.584 238.27L166.968 264.717L142.898 241.031Z" fill="#F8F7F2"/>
<path fill-rule="evenodd" clip-rule="evenodd" d="M213.408 237.037V288.252H210.786V237.037H213.408Z" fill="#F8F7F2"/>
<path fill-rule="evenodd" clip-rule="evenodd" d="M194.033 198.626C194.033 202.124 196.878 204.966 200.396 204.966C203.913 204.966 206.758 202.124 206.758 198.626C206.758 195.128 203.913 192.285 200.396 192.285C196.878 192.285 194.033 195.128 194.033 198.626ZM200.396 207.589C195.437 207.589 191.411 203.579 191.411 198.626C191.411 193.673 195.437 189.663 200.396 189.663C205.354 189.663 209.38 193.673 209.38 198.626C209.38 203.579 205.354 207.589 200.396 207.589Z" fill="#F8F7F2"/>
<path fill-rule="evenodd" clip-rule="evenodd" d="M244.239 228.074C244.239 231.573 247.084 234.415 250.601 234.415C254.118 234.415 256.963 231.573 256.963 228.074C256.963 224.576 254.118 221.734 250.601 221.734C247.084 221.734 244.239 224.576 244.239 228.074ZM250.601 237.037C245.643 237.037 241.617 233.028 241.617 228.074C241.617 223.121 245.643 219.112 250.601 219.112C255.559 219.112 259.585 223.121 259.585 228.074C259.585 233.028 255.559 237.037 250.601 237.037Z" fill="#F8F7F2"/>
<path fill-rule="evenodd" clip-rule="evenodd" d="M132.576 234.476C132.576 237.974 135.421 240.817 138.938 240.817C142.456 240.817 145.301 237.974 145.301 234.476C145.301 230.978 142.456 228.136 138.938 228.136C135.421 228.136 132.576 230.978 132.576 234.476ZM138.938 243.439C133.98 243.439 129.954 239.43 129.954 234.476C129.954 229.523 133.98 225.514 138.938 225.514C143.897 225.514 147.923 229.523 147.923 234.476C147.923 239.43 143.897 243.439 138.938 243.439Z" fill="#F8F7F2"/>
<path d="M223.648 237.037C223.648 230.673 218.476 225.514 212.097 225.514C205.717 225.514 200.546 230.673 200.546 237.037C200.546 243.401 205.717 248.56 212.097 248.56C218.476 248.56 223.648 243.401 223.648 237.037Z" fill="#F8F7F2"/>
<path fill-rule="evenodd" clip-rule="evenodd" d="M324.351 228.46L315.255 257.097L312.756 256.304L323.593 222.183L341.797 254.938L339.559 256.304L324.351 228.46Z" fill="#F8F7F2"/>
<path fill-rule="evenodd" clip-rule="evenodd" d="M312.758 143.555L315.253 142.751L324.348 170.997L340.822 142.18L343.055 143.555L323.596 177.217L312.758 143.555Z" fill="#F8F7F2"/>
<path fill-rule="evenodd" clip-rule="evenodd" d="M240.759 197.093L282.22 198.362L257.219 223.772L255.35 221.933L275.88 201.067L240.794 199.714L240.759 197.093Z" fill="#F8F7F2"/>
<path fill-rule="evenodd" clip-rule="evenodd" d="M254.773 178.102L256.613 176.233L279.257 198.516L323.485 172.874L355.133 165.551L355.724 168.106L324.459 175.34L278.843 201.787L254.773 178.102Z" fill="#F8F7F2"/>
<path fill-rule="evenodd" clip-rule="evenodd" d="M324.498 224.114L279.691 199.008L278.409 201.295L323.445 226.53L354.566 236.552L355.37 234.056L324.498 224.114Z" fill="#F8F7F2"/>
<path fill-rule="evenodd" clip-rule="evenodd" d="M325.283 174.107V225.322H322.661V174.107H325.283Z" fill="#F8F7F2"/>
<path fill-rule="evenodd" clip-rule="evenodd" d="M305.909 135.696C305.909 139.194 308.754 142.037 312.271 142.037C315.788 142.037 318.633 139.194 318.633 135.696C318.633 132.198 315.788 129.356 312.271 129.356C308.754 129.356 305.909 132.198 305.909 135.696ZM312.271 144.659C307.312 144.659 303.286 140.65 303.286 135.696C303.286 130.743 307.312 126.734 312.271 126.734C317.229 126.734 321.255 130.743 321.255 135.696C321.255 140.65 317.229 144.659 312.271 144.659Z" fill="#F8F7F2"/>
<path fill-rule="evenodd" clip-rule="evenodd" d="M338.145 135.697C338.145 139.195 340.99 142.038 344.507 142.038C348.025 142.038 350.87 139.195 350.87 135.697C350.87 132.199 348.025 129.357 344.507 129.357C340.99 129.357 338.145 132.199 338.145 135.697ZM344.507 144.66C339.549 144.66 335.523 140.65 335.523 135.697C335.523 130.744 339.549 126.734 344.507 126.734C349.466 126.734 353.492 130.744 353.492 135.697C353.492 140.65 349.466 144.66 344.507 144.66Z" fill="#F8F7F2"/>
<path fill-rule="evenodd" clip-rule="evenodd" d="M356.114 165.144C356.114 168.643 358.959 171.485 362.476 171.485C365.993 171.485 368.838 168.643 368.838 165.144C368.838 161.646 365.993 158.804 362.476 158.804C358.959 158.804 356.114 161.646 356.114 165.144ZM362.476 174.107C357.518 174.107 353.492 170.098 353.492 165.144C353.492 160.191 357.518 156.182 362.476 156.182C367.434 156.182 371.46 160.191 371.46 165.144C371.46 170.098 367.434 174.107 362.476 174.107Z" fill="#F8F7F2"/>
<path fill-rule="evenodd" clip-rule="evenodd" d="M226.372 197.752C226.372 201.25 229.217 204.092 232.735 204.092C236.252 204.092 239.097 201.25 239.097 197.752C239.097 194.254 236.252 191.411 232.735 191.411C229.217 191.411 226.372 194.254 226.372 197.752ZM232.735 206.714C227.776 206.714 223.75 202.705 223.75 197.752C223.75 192.798 227.776 188.789 232.735 188.789C237.693 188.789 241.719 192.798 241.719 197.752C241.719 202.705 237.693 206.714 232.735 206.714Z" fill="#F8F7F2"/>
<path fill-rule="evenodd" clip-rule="evenodd" d="M244.451 171.546C244.451 175.045 247.296 177.887 250.813 177.887C254.331 177.887 257.176 175.045 257.176 171.546C257.176 168.048 254.331 165.206 250.813 165.206C247.296 165.206 244.451 168.048 244.451 171.546ZM250.813 180.509C245.855 180.509 241.829 176.5 241.829 171.546C241.829 166.593 245.855 162.584 250.813 162.584C255.772 162.584 259.798 166.593 259.798 171.546C259.798 176.5 255.772 180.509 250.813 180.509Z" fill="#F8F7F2"/>
<path d="M290.601 199.714C290.601 193.35 285.43 188.191 279.05 188.191C272.671 188.191 267.499 193.35 267.499 199.714C267.499 206.079 272.671 211.238 279.05 211.238C285.43 211.238 290.601 206.079 290.601 199.714Z" fill="#F8F7F2"/>
<path d="M335.523 225.322C335.523 218.958 330.352 213.798 323.972 213.798C317.592 213.798 312.421 218.958 312.421 225.322C312.421 231.686 317.592 236.845 323.972 236.845C330.352 236.845 335.523 231.686 335.523 225.322Z" fill="#F8F7F2"/>
<path d="M335.523 174.107C335.523 167.743 330.352 162.584 323.972 162.584C317.592 162.584 312.421 167.743 312.421 174.107C312.421 180.471 317.592 185.63 323.972 185.63C330.352 185.63 335.523 180.471 335.523 174.107Z" fill="#F8F7F2"/>
<path fill-rule="evenodd" clip-rule="evenodd" d="M436.226 166.405L427.13 195.042L424.631 194.248L435.468 160.128L453.672 192.883L451.434 194.248L436.226 166.405Z" fill="#F8F7F2"/>
<path fill-rule="evenodd" clip-rule="evenodd" d="M424.633 81.4991L427.129 80.6955L436.223 108.941L452.697 80.124L454.93 81.4991L435.471 115.161L424.633 81.4991Z" fill="#F8F7F2"/>
<path fill-rule="evenodd" clip-rule="evenodd" d="M352.634 135.037L394.095 136.306L369.095 161.716L367.226 159.877L387.755 139.012L352.669 137.659L352.634 135.037Z" fill="#F8F7F2"/>
<path fill-rule="evenodd" clip-rule="evenodd" d="M366.649 116.046L368.488 114.177L391.132 136.46L435.36 110.818L467.008 103.495L467.599 106.05L436.334 113.284L390.718 139.731L366.649 116.046Z" fill="#F8F7F2"/>
<path fill-rule="evenodd" clip-rule="evenodd" d="M436.374 162.058L391.566 136.952L390.284 139.24L435.32 164.474L466.441 174.496L467.245 172L436.374 162.058Z" fill="#F8F7F2"/>
<path fill-rule="evenodd" clip-rule="evenodd" d="M437.158 112.051V163.266H434.536V112.051H437.158Z" fill="#F8F7F2"/>
<path fill-rule="evenodd" clip-rule="evenodd" d="M417.784 73.6404C417.784 77.1387 420.629 79.981 424.146 79.981C427.663 79.981 430.508 77.1387 430.508 73.6404C430.508 70.1422 427.663 67.2999 424.146 67.2999C420.629 67.2999 417.784 70.1422 417.784 73.6404ZM424.146 82.603C419.188 82.603 415.162 78.5938 415.162 73.6404C415.162 68.687 419.188 64.6779 424.146 64.6779C429.104 64.6779 433.13 68.687 433.13 73.6404C433.13 78.5938 429.104 82.603 424.146 82.603Z" fill="#F8F7F2"/>
<path fill-rule="evenodd" clip-rule="evenodd" d="M450.02 73.6414C450.02 77.1397 452.865 79.9819 456.382 79.9819C459.9 79.9819 462.745 77.1397 462.745 73.6414C462.745 70.1432 459.9 67.3009 456.382 67.3009C452.865 67.3009 450.02 70.1432 450.02 73.6414ZM456.382 82.604C451.424 82.604 447.398 78.5948 447.398 73.6414C447.398 68.688 451.424 64.6788 456.382 64.6788C461.341 64.6788 465.367 68.688 465.367 73.6414C465.367 78.5948 461.341 82.604 456.382 82.604Z" fill="#F8F7F2"/>
<path fill-rule="evenodd" clip-rule="evenodd" d="M467.989 103.089C467.989 106.587 470.834 109.429 474.351 109.429C477.868 109.429 480.713 106.587 480.713 103.089C480.713 99.5905 477.868 96.7483 474.351 96.7483C470.834 96.7483 467.989 99.5905 467.989 103.089ZM474.351 112.051C469.393 112.051 465.367 108.042 465.367 103.089C465.367 98.1354 469.393 94.1262 474.351 94.1262C479.31 94.1262 483.336 98.1354 483.336 103.089C483.336 108.042 479.31 112.051 474.351 112.051Z" fill="#F8F7F2"/>
<path fill-rule="evenodd" clip-rule="evenodd" d="M338.248 135.696C338.248 139.194 341.092 142.037 344.61 142.037C348.127 142.037 350.972 139.194 350.972 135.696C350.972 132.198 348.127 129.356 344.61 129.356C341.092 129.356 338.248 132.198 338.248 135.696ZM344.61 144.659C339.651 144.659 335.625 140.65 335.625 135.696C335.625 130.743 339.651 126.734 344.61 126.734C349.568 126.734 353.594 130.743 353.594 135.696C353.594 140.65 349.568 144.659 344.61 144.659Z" fill="#F8F7F2"/>
<path fill-rule="evenodd" clip-rule="evenodd" d="M356.326 109.491C356.326 112.989 359.171 115.831 362.689 115.831C366.206 115.831 369.051 112.989 369.051 109.491C369.051 105.992 366.206 103.15 362.689 103.15C359.171 103.15 356.326 105.992 356.326 109.491ZM362.689 118.453C357.73 118.453 353.704 114.444 353.704 109.491C353.704 104.537 357.73 100.528 362.689 100.528C367.647 100.528 371.673 104.537 371.673 109.491C371.673 114.444 367.647 118.453 362.689 118.453Z" fill="#F8F7F2"/>
<path d="M402.477 137.659C402.477 131.295 397.305 126.135 390.925 126.135C384.546 126.135 379.374 131.295 379.374 137.659C379.374 144.023 384.546 149.182 390.925 149.182C397.305 149.182 402.477 144.023 402.477 137.659Z" fill="#F8F7F2"/>
<path d="M447.398 163.266C447.398 156.902 442.227 151.743 435.847 151.743C429.467 151.743 424.296 156.902 424.296 163.266C424.296 169.63 429.467 174.789 435.847 174.789C442.227 174.789 447.398 169.63 447.398 163.266Z" fill="#F8F7F2"/>
<path d="M447.398 112.051C447.398 105.687 442.227 100.528 435.847 100.528C429.467 100.528 424.296 105.687 424.296 112.051C424.296 118.416 429.467 123.575 435.847 123.575C442.227 123.575 447.398 118.416 447.398 112.051Z" fill="#F8F7F2"/>
<path fill-rule="evenodd" clip-rule="evenodd" d="M212.475 162.908L203.38 191.546L200.881 190.752L211.718 156.632L229.922 189.386L227.683 190.752L212.475 162.908Z" fill="#F8F7F2"/>
<path fill-rule="evenodd" clip-rule="evenodd" d="M200.882 78.003L203.378 77.1994L212.473 105.445L228.947 76.6279L231.179 78.003L211.721 111.665L200.882 78.003Z" fill="#F8F7F2"/>
<path fill-rule="evenodd" clip-rule="evenodd" d="M128.884 131.541L170.345 132.81L145.344 158.22L143.475 156.381L164.005 135.515L128.919 134.163L128.884 131.541Z" fill="#F8F7F2"/>
<path fill-rule="evenodd" clip-rule="evenodd" d="M142.898 112.55L144.737 110.681L167.382 132.964L211.609 107.322L243.257 99.9993L243.849 102.554L212.584 109.788L166.968 136.235L142.898 112.55Z" fill="#F8F7F2"/>
<path fill-rule="evenodd" clip-rule="evenodd" d="M212.623 158.562L167.816 133.456L166.534 135.743L211.57 160.978L242.691 171L243.494 168.504L212.623 158.562Z" fill="#F8F7F2"/>
<path fill-rule="evenodd" clip-rule="evenodd" d="M213.408 108.555V159.77H210.786V108.555H213.408Z" fill="#F8F7F2"/>
<path fill-rule="evenodd" clip-rule="evenodd" d="M194.033 70.1443C194.033 73.6426 196.878 76.4849 200.396 76.4849C203.913 76.4849 206.758 73.6426 206.758 70.1443C206.758 66.6461 203.913 63.8038 200.396 63.8038C196.878 63.8038 194.033 66.6461 194.033 70.1443ZM200.396 79.1069C195.437 79.1069 191.411 75.0977 191.411 70.1443C191.411 65.1909 195.437 61.1818 200.396 61.1818C205.354 61.1818 209.38 65.1909 209.38 70.1443C209.38 75.0977 205.354 79.1069 200.396 79.1069Z" fill="#F8F7F2"/>
<path fill-rule="evenodd" clip-rule="evenodd" d="M226.27 70.1453C226.27 73.6436 229.115 76.4858 232.632 76.4858C236.149 76.4858 238.994 73.6436 238.994 70.1453C238.994 66.6471 236.149 63.8048 232.632 63.8048C229.115 63.8048 226.27 66.6471 226.27 70.1453ZM232.632 79.1079C227.674 79.1079 223.648 75.0987 223.648 70.1453C223.648 65.1919 227.674 61.1827 232.632 61.1827C237.591 61.1827 241.617 65.1919 241.617 70.1453C241.617 75.0987 237.591 79.1079 232.632 79.1079Z" fill="#F8F7F2"/>
<path fill-rule="evenodd" clip-rule="evenodd" d="M244.239 99.5927C244.239 103.091 247.084 105.933 250.601 105.933C254.118 105.933 256.963 103.091 256.963 99.5927C256.963 96.0945 254.118 93.2522 250.601 93.2522C247.084 93.2522 244.239 96.0945 244.239 99.5927ZM250.601 108.555C245.643 108.555 241.617 104.546 241.617 99.5927C241.617 94.6393 245.643 90.6301 250.601 90.6301C255.559 90.6301 259.585 94.6393 259.585 99.5927C259.585 104.546 255.559 108.555 250.601 108.555Z" fill="#F8F7F2"/>
<path fill-rule="evenodd" clip-rule="evenodd" d="M132.576 162.331C132.576 165.829 135.421 168.671 138.938 168.671C142.456 168.671 145.301 165.829 145.301 162.331C145.301 158.832 142.456 155.99 138.938 155.99C135.421 155.99 132.576 158.832 132.576 162.331ZM138.938 171.293C133.98 171.293 129.954 167.284 129.954 162.331C129.954 157.377 133.98 153.368 138.938 153.368C143.897 153.368 147.923 157.377 147.923 162.331C147.923 167.284 143.897 171.293 138.938 171.293Z" fill="#F8F7F2"/>
<path fill-rule="evenodd" clip-rule="evenodd" d="M114.497 132.2C114.497 135.698 117.342 138.541 120.859 138.541C124.377 138.541 127.222 135.698 127.222 132.2C127.222 128.702 124.377 125.859 120.859 125.859C117.342 125.859 114.497 128.702 114.497 132.2ZM120.859 141.163C115.901 141.163 111.875 137.153 111.875 132.2C111.875 127.247 115.901 123.237 120.859 123.237C125.818 123.237 129.844 127.247 129.844 132.2C129.844 137.153 125.818 141.163 120.859 141.163Z" fill="#F8F7F2"/>
<path fill-rule="evenodd" clip-rule="evenodd" d="M132.576 105.995C132.576 109.493 135.421 112.335 138.938 112.335C142.456 112.335 145.301 109.493 145.301 105.995C145.301 102.496 142.456 99.6541 138.938 99.6541C135.421 99.6541 132.576 102.496 132.576 105.995ZM138.938 114.957C133.98 114.957 129.954 110.948 129.954 105.995C129.954 101.041 133.98 97.032 138.938 97.032C143.897 97.032 147.923 101.041 147.923 105.995C147.923 110.948 143.897 114.957 138.938 114.957Z" fill="#F8F7F2"/>
<path d="M178.726 134.163C178.726 127.799 173.555 122.639 167.175 122.639C160.795 122.639 155.624 127.799 155.624 134.163C155.624 140.527 160.795 145.686 167.175 145.686C173.555 145.686 178.726 140.527 178.726 134.163Z" fill="#F8F7F2"/>
<path d="M223.648 159.77C223.648 153.406 218.476 148.247 212.097 148.247C205.717 148.247 200.546 153.406 200.546 159.77C200.546 166.134 205.717 171.293 212.097 171.293C218.476 171.293 223.648 166.134 223.648 159.77Z" fill="#F8F7F2"/>
<path d="M223.648 108.555C223.648 102.191 218.476 97.032 212.097 97.032C205.717 97.032 200.546 102.191 200.546 108.555C200.546 114.919 205.717 120.079 212.097 120.079C218.476 120.079 223.648 114.919 223.648 108.555Z" fill="#F8F7F2"/>
<path fill-rule="evenodd" clip-rule="evenodd" d="M100.6 224.964L91.5049 253.601L89.0058 252.808L99.8428 218.687L118.047 251.442L115.808 252.808L100.6 224.964Z" fill="#F8F7F2"/>
<path fill-rule="evenodd" clip-rule="evenodd" d="M89.0073 140.059L91.5032 139.255L100.597 167.501L117.072 138.684L119.304 140.059L99.8456 173.721L89.0073 140.059Z" fill="#F8F7F2"/>
<path fill-rule="evenodd" clip-rule="evenodd" d="M17.0091 193.597L58.47 194.866L33.4692 220.276L31.6001 218.437L52.1296 197.571L17.0435 196.218L17.0091 193.597Z" fill="#F8F7F2"/>
<path fill-rule="evenodd" clip-rule="evenodd" d="M31.0232 174.606L32.8623 172.737L55.507 195.02L99.7343 169.378L131.382 162.055L131.973 164.61L100.709 171.844L55.0927 198.291L31.0232 174.606Z" fill="#F8F7F2"/>
<path fill-rule="evenodd" clip-rule="evenodd" d="M100.748 220.618L55.9407 195.512L54.659 197.799L99.695 223.034L130.815 233.056L131.619 230.56L100.748 220.618Z" fill="#F8F7F2"/>
<path fill-rule="evenodd" clip-rule="evenodd" d="M101.533 170.611V221.826H98.9105V170.611H101.533Z" fill="#F8F7F2"/>
<path fill-rule="evenodd" clip-rule="evenodd" d="M82.1583 132.2C82.1583 135.698 85.0033 138.541 88.5206 138.541C92.0379 138.541 94.8828 135.698 94.8828 132.2C94.8828 128.702 92.0379 125.859 88.5206 125.859C85.0033 125.859 82.1583 128.702 82.1583 132.2ZM88.5206 141.163C83.5622 141.163 79.5362 137.153 79.5362 132.2C79.5362 127.247 83.5622 123.237 88.5206 123.237C93.479 123.237 97.5049 127.247 97.5049 132.2C97.5049 137.153 93.479 141.163 88.5206 141.163Z" fill="#F8F7F2"/>
<path fill-rule="evenodd" clip-rule="evenodd" d="M20.7009 224.386C20.7009 227.885 23.5459 230.727 27.0632 230.727C30.5805 230.727 33.4254 227.885 33.4254 224.386C33.4254 220.888 30.5805 218.046 27.0632 218.046C23.5459 218.046 20.7009 220.888 20.7009 224.386ZM27.0632 233.349C22.1048 233.349 18.0788 229.34 18.0788 224.386C18.0788 219.433 22.1048 215.424 27.0632 215.424C32.0216 215.424 36.0475 219.433 36.0475 224.386C36.0475 229.34 32.0216 233.349 27.0632 233.349Z" fill="#F8F7F2"/>
<path fill-rule="evenodd" clip-rule="evenodd" d="M2.62208 194.256C2.62208 197.754 5.46705 200.596 8.98434 200.596C12.5016 200.596 15.3466 197.754 15.3466 194.256C15.3466 190.757 12.5016 187.915 8.98434 187.915C5.46705 187.915 2.62208 190.757 2.62208 194.256ZM8.98434 203.218C4.02594 203.218 1.90735e-06 199.209 1.90735e-06 194.256C1.90735e-06 189.302 4.02594 185.293 8.98434 185.293C13.9427 185.293 17.9687 189.302 17.9687 194.256C17.9687 199.209 13.9427 203.218 8.98434 203.218Z" fill="#F8F7F2"/>
<path fill-rule="evenodd" clip-rule="evenodd" d="M20.7009 168.05C20.7009 171.548 23.5459 174.391 27.0632 174.391C30.5805 174.391 33.4254 171.548 33.4254 168.05C33.4254 164.552 30.5805 161.71 27.0632 161.71C23.5459 161.71 20.7009 164.552 20.7009 168.05ZM27.0632 177.013C22.1048 177.013 18.0788 173.004 18.0788 168.05C18.0788 163.097 22.1048 159.088 27.0632 159.088C32.0216 159.088 36.0475 163.097 36.0475 168.05C36.0475 173.004 32.0216 177.013 27.0632 177.013Z" fill="#F8F7F2"/>
<path d="M66.8512 196.218C66.8512 189.854 61.6795 184.695 55.2999 184.695C48.9203 184.695 43.7486 189.854 43.7486 196.218C43.7486 202.583 48.9203 207.742 55.2999 207.742C61.6795 207.742 66.8512 202.583 66.8512 196.218Z" fill="#F8F7F2"/>
<path d="M111.773 221.826C111.773 215.462 106.601 210.302 100.222 210.302C93.8421 210.302 88.6704 215.462 88.6704 221.826C88.6704 228.19 93.8421 233.349 100.222 233.349C106.601 233.349 111.773 228.19 111.773 221.826Z" fill="#F8F7F2"/>
<path d="M111.773 170.611C111.773 164.247 106.601 159.088 100.222 159.088C93.8421 159.088 88.6704 164.247 88.6704 170.611C88.6704 176.975 93.8421 182.134 100.222 182.134C106.601 182.134 111.773 176.975 111.773 170.611Z" fill="#F8F7F2"/>
<path fill-rule="evenodd" clip-rule="evenodd" d="M324.351 101.727L315.255 130.364L312.756 129.57L323.593 95.4499L341.797 128.205L339.559 129.57L324.351 101.727Z" fill="#F8F7F2"/>
<path fill-rule="evenodd" clip-rule="evenodd" d="M312.758 16.8212L315.254 16.0176L324.348 44.2633L340.822 15.4461L343.055 16.8212L323.596 50.4836L312.758 16.8212Z" fill="#F8F7F2"/>
<path fill-rule="evenodd" clip-rule="evenodd" d="M240.759 70.3591L282.22 71.6282L257.219 97.0381L255.35 95.1991L275.88 74.3337L240.794 72.981L240.759 70.3591Z" fill="#F8F7F2"/>
<path fill-rule="evenodd" clip-rule="evenodd" d="M254.773 51.3682L256.613 49.4992L279.257 71.7824L323.485 46.1406L355.133 38.8175L355.724 41.3721L324.459 48.6065L278.843 75.0535L254.773 51.3682Z" fill="#F8F7F2"/>
<path fill-rule="evenodd" clip-rule="evenodd" d="M324.498 97.3806L279.691 72.2743L278.409 74.5617L323.445 99.7961L354.566 109.818L355.37 107.322L324.498 97.3806Z" fill="#F8F7F2"/>
<path fill-rule="evenodd" clip-rule="evenodd" d="M325.283 47.3735V98.5883H322.661V47.3735H325.283Z" fill="#F8F7F2"/>
<path fill-rule="evenodd" clip-rule="evenodd" d="M305.909 8.96258C305.909 12.4608 308.754 15.3031 312.271 15.3031C315.788 15.3031 318.633 12.4608 318.633 8.96258C318.633 5.46432 315.788 2.62207 312.271 2.62207C308.754 2.62207 305.909 5.46432 305.909 8.96258ZM312.271 17.9252C307.312 17.9252 303.287 13.916 303.287 8.96258C303.287 4.00917 307.312 0 312.271 0C317.229 0 321.255 4.00917 321.255 8.96258C321.255 13.916 317.229 17.9252 312.271 17.9252Z" fill="#F8F7F2"/>
<path fill-rule="evenodd" clip-rule="evenodd" d="M338.145 8.96357C338.145 12.4618 340.99 15.3041 344.507 15.3041C348.025 15.3041 350.87 12.4618 350.87 8.96357C350.87 5.46531 348.025 2.62305 344.507 2.62305C340.99 2.62305 338.145 5.46531 338.145 8.96357ZM344.507 17.9261C339.549 17.9261 335.523 13.917 335.523 8.96357C335.523 4.01017 339.549 0.000976562 344.507 0.000976562C349.466 0.000976562 353.492 4.01016 353.492 8.96357C353.492 13.917 349.466 17.9261 344.507 17.9261Z" fill="#F8F7F2"/>
<path fill-rule="evenodd" clip-rule="evenodd" d="M356.114 38.4109C356.114 41.9092 358.959 44.7515 362.476 44.7515C365.993 44.7515 368.838 41.9092 368.838 38.4109C368.838 34.9127 365.993 32.0704 362.476 32.0704C358.959 32.0704 356.114 34.9127 356.114 38.4109ZM362.476 47.3735C357.518 47.3735 353.492 43.3644 353.492 38.4109C353.492 33.4575 357.518 29.4484 362.476 29.4484C367.434 29.4484 371.46 33.4575 371.46 38.4109C371.46 43.3644 367.434 47.3735 362.476 47.3735Z" fill="#F8F7F2"/>
<path fill-rule="evenodd" clip-rule="evenodd" d="M244.451 44.8128C244.451 48.3111 247.296 51.1533 250.813 51.1533C254.331 51.1533 257.176 48.3111 257.176 44.8128C257.176 41.3145 254.331 38.4723 250.813 38.4723C247.296 38.4723 244.451 41.3145 244.451 44.8128ZM250.813 53.7754C245.855 53.7754 241.829 49.7662 241.829 44.8128C241.829 39.8594 245.855 35.8502 250.813 35.8502C255.772 35.8502 259.798 39.8594 259.798 44.8128C259.798 49.7662 255.772 53.7754 250.813 53.7754Z" fill="#F8F7F2"/>
<path d="M290.601 72.981C290.601 66.6168 285.43 61.4576 279.05 61.4576C272.671 61.4576 267.499 66.6168 267.499 72.981C267.499 79.3451 272.671 84.5043 279.05 84.5043C285.43 84.5043 290.601 79.3451 290.601 72.981Z" fill="#F8F7F2"/>
<path d="M335.523 98.5882C335.523 92.2241 330.352 87.0649 323.972 87.0649C317.592 87.0649 312.421 92.2241 312.421 98.5882C312.421 104.952 317.592 110.112 323.972 110.112C330.352 110.112 335.523 104.952 335.523 98.5882Z" fill="#F8F7F2"/>
<path d="M335.523 47.3735C335.523 41.0094 330.352 35.8502 323.972 35.8502C317.592 35.8502 312.421 41.0094 312.421 47.3735C312.421 53.7377 317.592 58.8969 323.972 58.8969C330.352 58.8969 335.523 53.7377 335.523 47.3735Z" fill="#F8F7F2"/>
</svg>
